<?xml version="1.0" encoding="UTF-8"?><svg id="uuid-7eeeab62-3f02-4847-a9b7-2ecfa10c98c2" xmlns="http://www.w3.org/2000/svg" viewBox="0 0 210 475.83">
<title>NBA logo - Brandlogos.net</title><path d="M160.62,0H49.24C22.04,0,0,22.05,0,49.24v377.21c0,27.22,22.02,49.3,49.24,49.38h111.38c27.24-.08,49.3-22.14,49.38-49.38V49.24c-.15-27.18-22.19-49.16-49.38-49.24" style="fill:#fff;"/><path d="M132.99,87.11v1.54c3.37,1.96,5.05,3.65,8.56,5.75,9.12,5.75,20.34,15.85,18.8,50.92,2.53,7.58,3.65,22.59,6.03,27.5,4.77,9.4,7.86,15.43,9.26,24.41,0,0,1.4,13.75,3.09,14.73,9.4,2.1,6.73,3.09,8,4.63,1.26,1.54,6.87,1.82,6.87,6.87,1.74,2.45,3.2,5.08,4.35,7.86V49.24c0-20.71-16.75-37.52-37.46-37.59h-36.05c5.75,2.1,8.98,4.49,10.94,8.28,4.63.42,10.24,10.8,1.54,26.23,3.79,2.53.84,6.31-1.96,10.8-.84,1.4-1.68,3.93-4.21,3.79-3.23,6.87-7.15,13.61-10.24,14.03-.84,1.12-1.54,4.07-.14,5.47,4.55,1.59,8.82,3.91,12.63,6.87M198.22,256.15c-6.89,17.19-26.41,25.53-43.6,18.64-17.19-6.89-25.53-26.41-18.64-43.59,4.02-10.02,12.62-17.5,23.1-20.08-3.93-9.68-12.06-25.39-14.45-30.58-2.39-5.19-7.86-37.03-8.98-43.35-.28-1.4-14.45,8.28-14.45,8.84s-10.66,26.51-11.08,27.92c-.42,1.4-.28,4.35-.28,4.35,0,0,4.77.56,7.57,8.98,2.81,8.42,11.08,39.14,11.08,39.14,0,0-2.24,2.38-2.38,2.24,10.66,35.49,6.87,50.78,11.64,61.16,6.03,14.73,7.58,12.77,12.77,25.11,3.65,8.98,7.72,44.33,9.12,45.87,5.75,7.29,8.84,12.91,8.84,16.97s-4.91,16.27-3.09,23.43c1.12,4.21,1.68,13.47,3.51,15.29,1.82,1.82,1.82,3.51.84,5.05-.38.58-.57,1.27-.56,1.96,3.23,11.08,13.33,30.16-3.22,40.12h.42c18.31-2.84,31.78-18.65,31.7-37.18v-170.3h.14Z" style="fill:#da1a32;"/><path d="M155.85,419.16c-6.03-5.33-1.97-7.72-2.25-9.82-3.93-16.41-17.11-26.51-10.24-31.84-1.68-5.47-5.05-12.2-4.91-12.2-20.34-11.64-37.73-30.72-40.68-33.53-2.95-2.81-9.68-7.86-10.8-10.94-4.91-4.49-28.9-38.58-34.51-51.2l-9.82-1.4c-4.49-18.1-19.22-33.39-19.64-51.48-.14-6.87,3.09-21.6,4.35-24.55,1.26-2.95,6.87-7.86,6.87-7.86v-4.91c-21.32.56-15.15-1.54-18.8-9.82-2.53-5.75-.7-7.01.14-10.94,2.81-11.78,12.34-29.88,16.27-38.02,1.26-4.21,5.33-14.17,5.33-14.17,15.85-32.26,21.74-29.88,40.68-31.7l.98-1.4c18.94-.84,15.85-2.24,18.52-20.48-2.81,1.12-3.51-5.75-3.51-5.75-1.54-10.38,2.81-8.42,4.91-8.56.42-16.97,2.24-22.3,14.45-27.07h-63.97c-20.76,0-37.6,16.83-37.6,37.59v377.21c0,20.79,16.81,37.66,37.6,37.74h111.38c-12.77-6.87-5.19-19.92-4.77-44.89h0Z" style="fill:#00438c;"/><path d="M70.3,440.48v-68.32h13.22c7.68,0,12.39,4.13,12.39,13.71v10.16c0,6.2-1.9,9.33-4.54,10.91,2.64,1.82,4.54,4.87,4.54,10.08v9.91c0,9.33-5.04,13.55-12.39,13.55h-13.22ZM79.39,410.82v21.07h3.47c3.14,0,3.97-1.65,3.97-4.88v-11.57c0-3.39-1.07-4.63-4.05-4.63h-3.39ZM79.39,380.75v22.55h3.39c3.22,0,4.05-1.16,4.05-4.87v-13.14c0-3.14-.99-4.63-3.97-4.63h-3.47v.08ZM117.39,426.6h-8.26l-1.16,13.88h-9.17l8.26-68.32h13.05l7.93,68.32h-9.58l-1.07-13.88ZM113.34,379.84h-.5c-.58,8.26-1.73,22.64-2.06,27.26l-1.07,11.73h7.11l-1.08-11.73c-.33-4.71-1.65-19-2.39-27.26M43.29,440.48h-7.93v-68.32h12.56l10.16,55.93c-.83-13.38-1.98-29.58-1.98-43.37v-12.64h7.93v68.32h-11.57l-10.16-54.69c.66,12.64.91,22.72.91,33.21v21.56h.08Z" style="fill:#fff;"/></svg>